# xmcd
#
# Track frame offsets: 
#        150
#        17806
#        35320
#        52544
#        67607
#        83582
#        104636
#        126062
#        149723
#        173288
#        195219
#        220139
#        240683
#        261737
#        280457
#        296244
#
# Disc length: 4197 seconds
#
# Revision: 0
# Processed by: cddbd v1.5.2PL0 Copyright (c) Steve Scherf et al.
# Submitted via: ExactAudioCopy v0.95b4
#
DISCID=e3106310
DTITLE=Various Artist - Best of Turkish Pop Vol. 3
DYEAR=2007
DGENRE=Pop
TTITLE0=Sezen Aksu/Oh Oh
TTITLE1=Murat Boz/Püf
TTITLE2=Burak Kut/Komple
TTITLE3=Kenan Dogulu/Çakkidi
TTITLE4=Hepsi/Ask Sakizi
TTITLE5=Emre Altug/Kapis Kapis
TTITLE6=Mirkelam/Elma Degil Ayva
TTITLE7=Hande Yener/Romeo
TTITLE8=Ajda Pekkan/Vitrin
TTITLE9=Burcu Günes/Olmazsa Olmaz
TTITLE10=Bengü/Korkma Kalbim
TTITLE11=Gülsen/Ruhuma Asla
TTITLE12=Davut Güloglu/Ham Yaparim
TTITLE13=Alisan/Allah Allah
TTITLE14=Özcan Deniz/Bir Dudaktan
TTITLE15=Niran Ünsal/Hayranim
EXTD=
EXTT0=
EXTT1=
EXTT2=
EXTT3=
EXTT4=
EXTT5=
EXTT6=
EXTT7=
EXTT8=
EXTT9=
EXTT10=
EXTT11=
EXTT12=
EXTT13=
EXTT14=
EXTT15=
PLAYORDER=
